<svg width="30" height="34" viewBox="0 0 30 34" fill="none" xmlns="http://www.w3.org/2000/svg">
<path d="M6.66667 15.3H10V18.7H6.66667V15.3ZM30 6.8V30.6C30 32.47 28.5 34 26.6667 34H3.33333C2.44928 34 1.60143 33.6418 0.976311 33.0042C0.351189 32.3665 0 31.5017 0 30.6L0.0166667 6.8C0.0166667 4.93 1.48333 3.4 3.33333 3.4H5V0H8.33333V3.4H21.6667V0H25V3.4H26.6667C28.5 3.4 30 4.93 30 6.8ZM3.33333 10.2H26.6667V6.8H3.33333V10.2ZM26.6667 30.6V13.6H3.33333V30.6H26.6667ZM20 18.7H23.3333V15.3H20V18.7ZM13.3333 18.7H16.6667V15.3H13.3333V18.7Z" fill="black"/>
</svg>
