<svg width="34" height="30" viewBox="0 0 34 30" fill="none" xmlns="http://www.w3.org/2000/svg">
<path d="M30.3333 6.66667H23.6666V3.33333L20.3333 0H13.6666L10.3333 3.33333V6.66667H3.66659C1.83325 6.66667 0.333252 8.16667 0.333252 10V18.3333C0.333252 19.5833 0.999919 20.6333 1.99992 21.2167V26.6667C1.99992 28.5167 3.48325 30 5.33325 30H28.6666C30.5166 30 31.9999 28.5167 31.9999 26.6667V21.2C32.9833 20.6167 33.6666 19.55 33.6666 18.3333V10C33.6666 8.16667 32.1666 6.66667 30.3333 6.66667ZM13.6666 3.33333H20.3333V6.66667H13.6666V3.33333ZM3.66659 10H30.3333V18.3333H21.9999V13.3333H11.9999V18.3333H3.66659V10ZM18.6666 20H15.3333V16.6667H18.6666V20ZM28.6666 26.6667H5.33325V21.6667H11.9999V23.3333H21.9999V21.6667H28.6666V26.6667Z" fill="black"/>
</svg>
