<svg width="30" height="40" viewBox="0 0 30 40" fill="none" xmlns="http://www.w3.org/2000/svg">
<path d="M15 0C6.725 0 0 6.97343 0 15.5541C0 20.7907 2.925 25.1717 6.325 28.2307C7.4 29.1899 9.275 30.7194 10.95 32.9747C12.8 35.4893 14.475 38.1854 15 40C15.525 38.1854 17.2 35.4893 19.05 32.9747C20.725 30.7194 22.6 29.1899 23.675 28.2307C27.075 25.1717 30 20.7907 30 15.5541C30 6.97343 23.275 0 15 0ZM15 6.63642C16.1294 6.63642 17.2477 6.86709 18.2911 7.31524C19.3345 7.7634 20.2825 8.42027 21.0811 9.24835C21.8797 10.0764 22.5132 11.0595 22.9454 12.1415C23.3776 13.2234 23.6 14.383 23.6 15.5541C23.6 16.7252 23.3776 17.8848 22.9454 18.9668C22.5132 20.0487 21.8797 21.0318 21.0811 21.8599C20.2825 22.688 19.3345 23.3448 18.2911 23.793C17.2477 24.2411 16.1294 24.4718 15 24.4718C12.7191 24.4718 10.5317 23.5323 8.91888 21.8599C7.30607 20.1875 6.4 17.9192 6.4 15.5541C6.4 13.189 7.30607 10.9207 8.91888 9.24835C10.5317 7.57596 12.7191 6.63642 15 6.63642Z" fill="black"/>
</svg>
