<svg width="26" height="38" viewBox="0 0 26 38" fill="none" xmlns="http://www.w3.org/2000/svg">
<path d="M7.8 19H23.4C24.1177 19 24.7305 19.2615 25.2383 19.7846C25.7461 20.3077 26 20.9509 26 21.7143C26 22.4777 25.7427 23.1209 25.2281 23.644C24.7135 24.167 24.1042 24.4286 23.4 24.4286H22.425L22.8312 37.3214C22.8448 37.5052 22.7872 37.6642 22.6586 37.7985C22.5299 37.9328 22.3776 38 22.2016 38H20.8C20.6375 38 20.4953 37.9328 20.3734 37.7985C20.2516 37.6642 20.1839 37.5052 20.1703 37.3214L19.8047 24.4286H9.1L7.02812 37.3426C6.96042 37.7809 6.75052 38 6.39844 38H4.89531C4.71927 38 4.56693 37.9328 4.43828 37.7985C4.30964 37.6642 4.25208 37.5123 4.26562 37.3426L6.19531 24.4286C6.14115 24.4003 5.84323 24.3614 5.30156 24.3119C4.7599 24.2625 4.30964 24.0751 3.95078 23.75C3.59193 23.4249 3.30417 22.8594 3.0875 22.0536C2.87083 21.2195 2.69141 20.1592 2.54922 18.8728C2.40703 17.5863 2.27161 16.0206 2.14297 14.1758C2.01432 12.3309 1.92292 11.1187 1.86875 10.5391C1.80104 9.7474 1.47266 8.49981 0.883594 6.79632C0.294531 5.09282 0 3.73214 0 2.71429C0 2.06399 0.213281 1.44903 0.639844 0.86942C1.06641 0.289807 1.71979 0 2.6 0C3.39896 0 3.99479 0.265067 4.3875 0.795201C4.78021 1.32533 5.13906 2.14881 5.46406 3.26562C6.69635 7.47842 7.475 12.7232 7.8 19Z" fill="black"/>
</svg>
