<svg width="30" height="30" viewBox="0 0 30 30" fill="none" xmlns="http://www.w3.org/2000/svg">
<path d="M15 30C6.71652 30 0 23.2835 0 15C0 6.71652 6.71652 0 15 0C23.2835 0 30 6.71652 30 15C30 23.2835 23.2835 30 15 30ZM15 2.54464C8.12277 2.54464 2.54464 8.12277 2.54464 15C2.54464 21.8772 8.12277 27.4554 15 27.4554C21.8772 27.4554 27.4554 21.8772 27.4554 15C27.4554 8.12277 21.8772 2.54464 15 2.54464Z" fill="black"/>
<path d="M20.8492 10.7611L16.0747 14.2131V22.5C16.0747 22.6473 15.9541 22.7678 15.8068 22.7678H14.1963C14.049 22.7678 13.9285 22.6473 13.9285 22.5V13.279C13.9285 13.1919 13.9686 13.1116 14.039 13.0613L19.5769 9.0234C19.6974 8.93635 19.8649 8.96314 19.9519 9.08032L20.9095 10.3861C20.9965 10.51 20.9698 10.6774 20.8492 10.7611Z" fill="black"/>
</svg>
