<svg width="34" height="34" viewBox="0 0 34 34" fill="none" xmlns="http://www.w3.org/2000/svg">
<path d="M27.9286 0C29.5388 0 31.0831 0.639666 32.2217 1.77828C33.3603 2.91689 34 4.46119 34 6.07143V27.9286C34 29.5388 33.3603 31.0831 32.2217 32.2217C31.0831 33.3603 29.5388 34 27.9286 34H6.07143C4.46119 34 2.91689 33.3603 1.77828 32.2217C0.639666 31.0831 0 29.5388 0 27.9286V6.07143C0 4.46119 0.639666 2.91689 1.77828 1.77828C2.91689 0.639666 4.46119 0 6.07143 0H27.9286ZM27.9286 2.42857H6.07143C5.10528 2.42857 4.17871 2.81237 3.49554 3.49554C2.81237 4.17871 2.42857 5.10528 2.42857 6.07143V27.9286C2.42857 28.8947 2.81237 29.8213 3.49554 30.5045C4.17871 31.1876 5.10528 31.5714 6.07143 31.5714H27.9286C28.8947 31.5714 29.8213 31.1876 30.5045 30.5045C31.1876 29.8213 31.5714 28.8947 31.5714 27.9286V6.07143C31.5714 5.10528 31.1876 4.17871 30.5045 3.49554C29.8213 2.81237 28.8947 2.42857 27.9286 2.42857ZM23.6009 14.5714C24.684 14.5714 25.075 14.6831 25.4709 14.8969C25.8667 15.1081 26.1776 15.419 26.3889 15.8149C26.6026 16.2107 26.7143 16.6017 26.7143 17.6849V23.6009C26.7143 24.684 26.6026 25.075 26.3889 25.4709C26.1819 25.862 25.862 26.1819 25.4709 26.3889C25.0774 26.6026 24.684 26.7143 23.6009 26.7143H10.3991C9.316 26.7143 8.925 26.6026 8.52914 26.3889C8.13796 26.1819 7.81809 25.862 7.61114 25.4709C7.39743 25.0774 7.28571 24.684 7.28571 23.6009V17.6849C7.28571 16.6017 7.39743 16.2107 7.61114 15.8149C7.81821 15.4238 8.13805 15.1039 8.52914 14.8969C8.925 14.6831 9.316 14.5714 10.3991 14.5714H23.6009ZM24.072 17.0049H9.928L9.73371 17.017L9.71914 17.2113V24.072L9.73129 24.2663L9.92557 24.2809H24.072L24.2663 24.2687L24.2809 24.0744V17.2137L24.2687 17.0194L24.0744 17.0049H24.072ZM25.5 7.28571C25.8034 7.28516 26.0961 7.39823 26.3203 7.60266C26.5446 7.8071 26.6841 8.08808 26.7116 8.39028C26.739 8.69248 26.6522 8.99399 26.4685 9.23545C26.2847 9.4769 26.0172 9.6408 25.7186 9.69486L25.5 9.71429H8.5C8.19656 9.71484 7.90391 9.60177 7.67967 9.39734C7.45543 9.1929 7.31586 8.91192 7.28845 8.60972C7.26103 8.30752 7.34775 8.00601 7.53153 7.76455C7.71532 7.5231 7.98284 7.3592 8.28143 7.30514L8.5 7.28571H25.5Z" fill="black"/>
</svg>
