<svg width="54" height="54" viewBox="0 0 54 54" fill="none" xmlns="http://www.w3.org/2000/svg">
<circle cx="27" cy="27" r="27" fill="#007AB9"/>
<path d="M16.3919 19.7838C18.2652 19.7838 19.7838 18.2652 19.7838 16.3919C19.7838 14.5186 18.2652 13 16.3919 13C14.5186 13 13 14.5186 13 16.3919C13 18.2652 14.5186 19.7838 16.3919 19.7838Z" fill="white"/>
<path d="M22.9866 22.3541V41.1724H28.8295V31.8664C28.8295 29.4108 29.2914 27.0327 32.3361 27.0327C35.3389 27.0327 35.3761 29.8402 35.3761 32.0214V41.174H41.2221V30.8541C41.2221 25.7848 40.1307 21.889 34.2057 21.889C31.361 21.889 29.4542 23.4501 28.6745 24.9275H28.5954V22.3541H22.9866ZM13.4651 22.3541H19.3172V41.1724H13.4651V22.3541Z" fill="white"/>
</svg>
