<svg width="40" height="31" viewBox="0 0 40 31" fill="none" xmlns="http://www.w3.org/2000/svg">
<path d="M38.5714 1.61047e-06H28.3571C26.1652 1.61047e-06 24.0223 0.622119 22.1786 1.79576L20 3.17677L17.8214 1.79576C15.9795 0.622345 13.8343 -0.00115652 11.6429 1.61047e-06H1.42857C0.638393 1.61047e-06 0 0.630944 0 1.4119V26.4731C0 27.2541 0.638393 27.885 1.42857 27.885H11.6429C13.8348 27.885 15.9777 28.5071 17.8214 29.6808L19.8036 30.9426C19.8616 30.9779 19.9286 31 19.9955 31C20.0625 31 20.1295 30.9824 20.1875 30.9426L22.1696 29.6808C24.0179 28.5071 26.1652 27.885 28.3571 27.885H38.5714C39.3616 27.885 40 27.2541 40 26.4731V1.4119C40 0.630944 39.3616 1.61047e-06 38.5714 1.61047e-06ZM11.6429 24.7082H3.21429V3.17677H11.6429C13.2232 3.17677 14.7589 3.6224 16.0848 4.46513L18.2634 5.84614L18.5714 6.04469V26.429C16.4464 25.2995 14.0714 24.7082 11.6429 24.7082ZM36.7857 24.7082H28.3571C25.9286 24.7082 23.5536 25.2995 21.4286 26.429V6.04469L21.7366 5.84614L23.9152 4.46513C25.2411 3.6224 26.7768 3.17677 28.3571 3.17677H36.7857V24.7082ZM14.8616 8.82437H6.56696C6.39286 8.82437 6.25 8.97438 6.25 9.15528V11.1408C6.25 11.3217 6.39286 11.4717 6.56696 11.4717H14.8571C15.0312 11.4717 15.1741 11.3217 15.1741 11.1408V9.15528C15.1786 8.97438 15.0357 8.82437 14.8616 8.82437ZM24.8214 9.15528V11.1408C24.8214 11.3217 24.9643 11.4717 25.1384 11.4717H33.4286C33.6027 11.4717 33.7455 11.3217 33.7455 11.1408V9.15528C33.7455 8.97438 33.6027 8.82437 33.4286 8.82437H25.1384C24.9643 8.82437 24.8214 8.97438 24.8214 9.15528ZM14.8616 15.0014H6.56696C6.39286 15.0014 6.25 15.1514 6.25 15.3323V17.3178C6.25 17.4987 6.39286 17.6487 6.56696 17.6487H14.8571C15.0312 17.6487 15.1741 17.4987 15.1741 17.3178V15.3323C15.1786 15.1514 15.0357 15.0014 14.8616 15.0014ZM33.433 15.0014H25.1384C24.9643 15.0014 24.8214 15.1514 24.8214 15.3323V17.3178C24.8214 17.4987 24.9643 17.6487 25.1384 17.6487H33.4286C33.6027 17.6487 33.7455 17.4987 33.7455 17.3178V15.3323C33.75 15.1514 33.6071 15.0014 33.433 15.0014Z" fill="black"/>
</svg>
