<svg width="26" height="16" viewBox="0 0 26 16" fill="none" xmlns="http://www.w3.org/2000/svg">
<path fill-rule="evenodd" clip-rule="evenodd" d="M0.636352 8C0.636352 7.76429 0.729389 7.53822 0.894995 7.37155C1.0606 7.20487 1.28521 7.11124 1.51941 7.11124L22.3473 7.11124L16.7893 1.51913C16.6235 1.35225 16.5303 1.1259 16.5303 0.889887C16.5303 0.653874 16.6235 0.427528 16.7893 0.260641C16.9551 0.093755 17.18 2.30528e-07 17.4145 2.20278e-07C17.649 2.10028e-07 17.8739 0.093755 18.0397 0.260641L25.1042 7.37075C25.1864 7.45331 25.2517 7.55139 25.2962 7.65937C25.3407 7.76734 25.3636 7.8831 25.3636 8C25.3636 8.1169 25.3407 8.23266 25.2962 8.34063C25.2517 8.44861 25.1864 8.54669 25.1042 8.62924L18.0397 15.7394C17.8739 15.9062 17.649 16 17.4145 16C17.18 16 16.9551 15.9062 16.7893 15.7394C16.6235 15.5725 16.5303 15.3461 16.5303 15.1101C16.5303 14.8741 16.6235 14.6478 16.7893 14.4809L22.3473 8.88876L1.51941 8.88876C1.28521 8.88876 1.0606 8.79513 0.894995 8.62845C0.729389 8.46177 0.636352 8.23572 0.636352 8Z" fill="#D4D4D4"/>
</svg>
